<?xml version="1.0" encoding="utf-8"?>
<!-- Generator: Adobe Illustrator 18.0.0, SVG Export Plug-In . SVG Version: 6.00 Build 0)  -->
<!DOCTYPE svg PUBLIC "-//W3C//DTD SVG 1.1//EN" "http://www.w3.org/Graphics/SVG/1.1/DTD/svg11.dtd">
<svg version="1.1" id="Capa_1" xmlns="http://www.w3.org/2000/svg" xmlns:xlink="http://www.w3.org/1999/xlink" x="0px" y="0px"
	 viewBox="230 20 500 500" enable-background="new 230 20 500 500" xml:space="preserve">
<rect x="230" y="20" fill="#F0F5F7" width="500" height="500"/>
<path fill-rule="evenodd" clip-rule="evenodd" fill="#FFFFFF" d="M476.9,449.7l0,0.6c-136.5,8.2-180.4-47.7-180.4-47.7
	s43.9-56,84.6-58.7c40.7-2.8,50.6-23.8,50.6-23.8l-1.8-32.1c-19.9-17.4-34.4-33-30.8-118.4c3.5-82.1,75.5-80.9,80.9-80.7
	c5.3-0.2,77.3-1.4,80.8,80.7c3.6,85.4-10.8,101-30.7,118.4l-1.8,32.1c0,0,9.9,21.1,50.7,23.8c40.7,2.8,84.6,58.7,84.6,58.7
	S607.5,455.8,476.9,449.7z"/>
<path fill="#D6E3E5" d="M449.6,463.1c-120,0-161.3-50.9-163-53.1l-5.8-7.4l5.8-7.4c1.9-2.5,47.6-60.2,93.2-63.3
	c25.1-1.7,35.7-10.9,39.3-15.2l-1.3-23.2c-19.9-18.2-34.7-39.5-31.1-124.5c2.9-68,50.9-92.1,91.1-92.1c0.8,0,1.4,0,1.8,0
	c0.3,0,0.9,0,1.7,0c8.1,0,29,1.3,49,13.2c32.7,19.4,40.9,53.7,41.9,79c3.6,85.1-11.2,106.3-31,124.5l-1.3,23.2
	c3.7,4.4,14.2,13.5,39.3,15.2c45.5,3.1,91.2,60.8,93.2,63.3l6.7,8.5l-7.9,7.5c-2.2,2.1-55,50.8-174.3,50.8c-4.8,0-9.7-0.1-14.7-0.2
	l-5.2,0.3C467.8,462.8,458.5,463.1,449.6,463.1z M285.2,402.7l4.1,5.3c1.7,2.1,41.9,51.8,160.3,51.8c8.8,0,18-0.3,27.3-0.8l5.4-0.3
	c5.1,0.2,9.9,0.2,14.7,0.2c117.9,0,169.8-47.9,171.9-49.9l5.6-5.3l-4.8-6.1c-1.9-2.4-46.7-59-90.7-62c-27.5-1.9-38.7-12.5-42.2-17
	l-0.4-0.5l1.5-25.9l0.5-0.5c19.4-17.7,34-38,30.4-122.3c-1-24.5-8.9-57.5-40.3-76.2c-19.3-11.5-39.5-12.7-47.3-12.7
	c-0.7,0-1.3,0-1.7,0c-0.5,0-1.1,0-1.8,0c-38.7,0-84.8,23.3-87.6,88.9c-3.6,84.3,11,104.5,30.5,122.3l0.5,0.5l1.5,25.9l-0.4,0.5
	c-3.5,4.5-14.7,15.1-42.2,17c-44,3-88.8,59.6-90.7,62L285.2,402.7z"/>
</svg>
