<?xml version="1.0" encoding="utf-8"?>
<!-- Generator: Adobe Illustrator 18.0.0, SVG Export Plug-In . SVG Version: 6.00 Build 0)  -->
<!DOCTYPE svg PUBLIC "-//W3C//DTD SVG 1.1 Tiny//EN" "http://www.w3.org/Graphics/SVG/1.1/DTD/svg11-tiny.dtd">
<svg version="1.1" baseProfile="tiny" id="Capa_1" xmlns="http://www.w3.org/2000/svg" xmlns:xlink="http://www.w3.org/1999/xlink"
	 x="0px" y="0px" viewBox="0 -400.7 646 374" xml:space="preserve">
<g>
	<rect y="-400.7" fill="#F7F7F7" width="646" height="374"/>
	<path fill="#E5E5E5" d="M337.4-256.7h78.9l-78.9-78.9V-256.7 M236.9-357.2h114.8l86.1,86.1v172.3c0,15.9-12.8,28.7-28.7,28.7H236.9
		c-15.9,0-28.7-13-28.7-28.7v-229.6C208.2-344.4,220.9-357.2,236.9-357.2 M236.9-98.9h129.2h43.1v-114.8l-57.5,57.5L323-185
		L236.9-98.9 M265.5-256.7c-15.9,0-28.7,12.8-28.7,28.7c0,15.9,12.8,28.7,28.7,28.7c15.9,0,28.7-12.8,28.7-28.7
		C294.3-243.8,281.4-256.7,265.5-256.7z"/>
</g>
</svg>
